<?xml version="1.0" encoding="UTF-8"?>
<svg xmlns="http://www.w3.org/2000/svg" xmlns:xlink="http://www.w3.org/1999/xlink" width="36" height="36" viewBox="0 0 36 36" version="1.1">
<g id="surface1">
<path style=" stroke:none;fill-rule:nonzero;fill:rgb(100%,37.647059%,23.137255%);fill-opacity:1;" d="M 18 30.546875 C 17.035156 30.578125 16.214844 29.847656 16.132812 28.886719 L 15.933594 27.238281 C 13.933594 26.671875 12.761719 25.191406 12.457031 22.839844 L 10.65625 8.972656 C 10.269531 8.910156 9.878906 8.882812 9.488281 8.886719 C 8.910156 8.882812 8.332031 8.957031 7.777344 9.109375 L 7.777344 30.140625 L 4.234375 30.140625 L 4.234375 13.234375 C 4.234375 10.941406 5.265625 9.320312 7.140625 8.648438 L 7.140625 7.558594 C 7.140625 6.296875 7.90625 5.453125 9.042969 5.453125 C 10.183594 5.453125 10.894531 6.160156 11.078125 7.453125 L 11.21875 8.460938 C 13.269531 9.042969 14.484375 10.691406 14.832031 13.371094 L 16.492188 26.738281 C 17.488281 26.929688 18.511719 26.929688 19.507812 26.738281 L 21.167969 13.371094 C 21.515625 10.691406 22.730469 9.042969 24.78125 8.460938 L 24.921875 7.453125 C 25.105469 6.164062 25.824219 5.453125 26.957031 5.453125 C 28.085938 5.453125 28.859375 6.296875 28.859375 7.558594 L 28.859375 8.648438 C 30.734375 9.320312 31.765625 10.941406 31.765625 13.234375 L 31.765625 30.140625 L 28.226562 30.140625 L 28.226562 9.109375 C 27.671875 8.957031 27.09375 8.882812 26.515625 8.886719 C 26.125 8.878906 25.734375 8.90625 25.347656 8.96875 L 23.546875 22.839844 C 23.25 25.148438 22.050781 26.664062 20.070312 27.238281 L 19.871094 28.890625 C 19.808594 29.863281 18.972656 30.601562 18 30.546875 Z M 16.578125 27.398438 L 16.757812 28.816406 C 16.804688 29.460938 17.355469 29.953125 18 29.917969 C 18.3125 29.941406 18.621094 29.835938 18.855469 29.625 C 19.089844 29.417969 19.230469 29.125 19.242188 28.808594 L 19.421875 27.390625 C 18.480469 27.542969 17.519531 27.542969 16.578125 27.390625 Z M 28.859375 29.523438 L 31.132812 29.523438 L 31.132812 13.234375 C 31.132812 11.292969 30.351562 9.949219 28.859375 9.324219 Z M 4.859375 29.523438 L 7.140625 29.523438 L 7.140625 9.324219 C 5.648438 9.949219 4.867188 11.292969 4.867188 13.234375 Z M 11.3125 9.144531 L 13.074219 22.757812 C 13.328125 24.726562 14.257812 26.003906 15.839844 26.558594 L 14.199219 13.441406 C 13.90625 11.128906 12.957031 9.71875 11.3125 9.144531 Z M 24.6875 9.144531 C 23.042969 9.71875 22.089844 11.128906 21.792969 13.445312 L 20.164062 26.550781 C 21.742188 25.992188 22.675781 24.71875 22.925781 22.75 Z M 7.773438 8.449219 C 8.332031 8.3125 8.90625 8.246094 9.484375 8.246094 C 9.847656 8.246094 10.207031 8.265625 10.566406 8.3125 L 10.457031 7.527344 C 10.316406 6.5625 9.84375 6.074219 9.042969 6.074219 C 8.242188 6.074219 7.773438 6.640625 7.773438 7.550781 Z M 26.515625 8.246094 C 27.09375 8.246094 27.667969 8.3125 28.226562 8.449219 L 28.226562 7.558594 C 28.226562 6.648438 27.738281 6.082031 26.957031 6.082031 C 26.171875 6.082031 25.683594 6.570312 25.542969 7.535156 L 25.433594 8.320312 C 25.792969 8.273438 26.152344 8.253906 26.515625 8.257812 Z M 26.515625 8.246094 "/>
</g>
</svg>
